<svg width="21" height="21" viewBox="0 0 21 21" fill="none" xmlns="http://www.w3.org/2000/svg">
<path fill-rule="evenodd" clip-rule="evenodd" d="M10.5 1.46512C5.51017 1.46512 1.46512 5.51017 1.46512 10.5C1.46512 15.4898 5.51017 19.5349 10.5 19.5349C15.4898 19.5349 19.5349 15.4898 19.5349 10.5C19.5349 5.51017 15.4898 1.46512 10.5 1.46512ZM0 10.5C0 4.70101 4.70101 0 10.5 0C16.299 0 21 4.70101 21 10.5C21 16.299 16.299 21 10.5 21C4.70101 21 0 16.299 0 10.5Z" fill="black"/>
<path fill-rule="evenodd" clip-rule="evenodd" d="M13.9479 7.0505C14.234 7.33658 14.234 7.80041 13.9479 8.08649L8.08747 13.947C7.80139 14.233 7.33756 14.233 7.05148 13.947C6.76539 13.6609 6.76539 13.197 7.05148 12.911L12.9119 7.0505C13.198 6.76442 13.6619 6.76442 13.9479 7.0505Z" fill="black"/>
<path fill-rule="evenodd" clip-rule="evenodd" d="M7.05148 7.0505C7.33756 6.76442 7.80139 6.76442 8.08747 7.0505L13.9479 12.911C14.234 13.197 14.234 13.6609 13.9479 13.947C13.6619 14.233 13.198 14.233 12.9119 13.947L7.05148 8.08649C6.76539 7.80041 6.76539 7.33658 7.05148 7.0505Z" fill="black"/>
</svg>
