<svg width="24" height="24" viewBox="0 0 24 24" fill="none" xmlns="http://www.w3.org/2000/svg">
<mask id="mask0_380_7802" style="mask-type:alpha" maskUnits="userSpaceOnUse" x="0" y="0" width="24" height="24">
<rect width="24" height="24" fill="white"/>
</mask>
<g mask="url(#mask0_380_7802)">
<path fill-rule="evenodd" clip-rule="evenodd" d="M5.52975 7.83825C6.369 4.968 8.97 3 12 3C15.5422 3 18.456 5.74275 18.729 9.216C20.9475 9.861 22.5 11.8883 22.5 14.25C22.5 17.145 20.145 19.5 17.25 19.5H7.5C4.19175 19.5 1.5 16.8083 1.5 13.5C1.5 10.9373 3.13575 8.66925 5.52975 7.83825ZM13.5 12H15C15.303 12 15.5767 11.817 15.693 11.5373C15.8092 11.2568 15.7448 10.9343 15.5303 10.7198L12.5303 7.71975C12.384 7.5735 12.192 7.5 12 7.5C11.808 7.5 11.616 7.5735 11.4698 7.71975L8.46975 10.7198C8.25525 10.9343 8.19075 11.2568 8.307 11.5373C8.42325 11.817 8.697 12 9 12H10.5V15C10.5 15.828 11.172 16.5 12 16.5C12.828 16.5 13.5 15.828 13.5 15V12Z" fill="#FCFCFC"/>
</g>
</svg>
