<svg width="25" height="25" viewBox="0 0 25 25" fill="none" xmlns="http://www.w3.org/2000/svg">
<path d="M17.3314 5.90807L19.4494 8.02507M18.6934 4.04307L12.9664 9.77007C12.6705 10.0656 12.4687 10.4421 12.3864 10.8521L11.8574 13.5001L14.5054 12.9701C14.9154 12.8881 15.2914 12.6871 15.5874 12.3911L21.3144 6.66407C21.4865 6.49197 21.623 6.28766 21.7162 6.06281C21.8093 5.83795 21.8572 5.59695 21.8572 5.35357C21.8572 5.11019 21.8093 4.86919 21.7162 4.64433C21.623 4.41948 21.4865 4.21517 21.3144 4.04307C21.1423 3.87097 20.938 3.73446 20.7132 3.64132C20.4883 3.54818 20.2473 3.50024 20.0039 3.50024C19.7605 3.50024 19.5195 3.54818 19.2947 3.64132C19.0698 3.73446 18.8655 3.87097 18.6934 4.04307V4.04307Z" stroke="url(#paint0_linear_392_100)" stroke-width="2" stroke-linecap="round" stroke-linejoin="round"/>
<path d="M19.8574 15.5V18.5C19.8574 19.0304 19.6467 19.5391 19.2716 19.9142C18.8966 20.2893 18.3879 20.5 17.8574 20.5H6.85742C6.32699 20.5 5.81828 20.2893 5.44321 19.9142C5.06814 19.5391 4.85742 19.0304 4.85742 18.5V7.5C4.85742 6.96957 5.06814 6.46086 5.44321 6.08579C5.81828 5.71071 6.32699 5.5 6.85742 5.5H9.85742" stroke="url(#paint1_linear_392_100)" stroke-width="2" stroke-linecap="round" stroke-linejoin="round"/>
<defs>
<linearGradient id="paint0_linear_392_100" x1="22.0906" y1="6.12732" x2="11.5" y2="6.95014" gradientUnits="userSpaceOnUse">
<stop stop-color="#246CF9"/>
<stop offset="0.0001" stop-color="#1E68F6"/>
<stop offset="1" stop-color="#0047D0"/>
</linearGradient>
<linearGradient id="paint1_linear_392_100" x1="20.2074" y1="9.44068" x2="4.32123" y2="10.6749" gradientUnits="userSpaceOnUse">
<stop stop-color="#246CF9"/>
<stop offset="0.0001" stop-color="#1E68F6"/>
<stop offset="1" stop-color="#0047D0"/>
</linearGradient>
</defs>
</svg>
